<?xml version="1.0" encoding="UTF-8" standalone="no"?>
<!-- Created with Inkscape (http://www.inkscape.org/) -->

<svg
   xmlns:dc="http://purl.org/dc/elements/1.1/"
   xmlns:cc="http://creativecommons.org/ns#"
   xmlns:rdf="http://www.w3.org/1999/02/22-rdf-syntax-ns#"
   xmlns:svg="http://www.w3.org/2000/svg"
   xmlns="http://www.w3.org/2000/svg"
   xmlns:sodipodi="http://sodipodi.sourceforge.net/DTD/sodipodi-0.dtd"
   xmlns:inkscape="http://www.inkscape.org/namespaces/inkscape"
   width="1900"
   height="1080"
   viewBox="0 0 502.70834 285.74999"
   version="1.1"
   id="svg8"
   inkscape:version="0.92.0 r"
   sodipodi:docname="drawing.svg">
  <defs
     id="defs2" />
  <sodipodi:namedview
     id="base"
     pagecolor="#ffffff"
     bordercolor="#666666"
     borderopacity="1.0"
     inkscape:pageopacity="0.0"
     inkscape:pageshadow="2"
     inkscape:zoom="0.25"
     inkscape:cx="512.87796"
     inkscape:cy="202.17675"
     inkscape:document-units="px"
     inkscape:current-layer="layer1"
     showgrid="false"
     inkscape:window-width="1362"
     inkscape:window-height="736"
     inkscape:window-x="0"
     inkscape:window-y="14"
     inkscape:window-maximized="0"
     units="px"
     scale-x="1"
     showguides="false" />
  <g
     inkscape:label="Layer 1"
     inkscape:groupmode="layer"
     id="layer1"
     transform="translate(0,-11.250013)">
    <path
       style="fill:none;stroke:#000000;stroke-width:0.53365666px;stroke-linecap:butt;stroke-linejoin:miter;stroke-opacity:1"
       d="m 289.26941,227.14575 c 39.87183,3.77281 78.06496,-9.5195 110.03649,-23.9064 42.68867,-20.4126 81.93727,-50.44436 84.62974,-86.80073 1.40952,-21.560188 -15.0261,-42.049381 -38.2725,-56.571224 C 376.96155,55.810493 308.2986,38.234401 238.98522,48.921341 208.59619,52.913395 180.92781,62.493369 154.00789,72.181047 116.04524,82.051618 69.577539,74.526145 36.205494,92.334011 11.338265,107.83815 14.21371,132.79458 18.415398,153.2442 c 3.546462,14.41521 9.453873,28.46978 10.876104,43.08797 5.007049,21.08719 13.041943,46.52997 44.33457,57.32799 33.634048,9.42942 69.438548,-1.34816 101.198418,-9.13316 36.41753,-8.78007 74.48396,-22.98044 114.44492,-17.38125 z"
       id="path3770-7"
       inkscape:connector-curvature="0" />
  </g>
  <metadata
     id="metadata3766">
    <rdf:RDF>
      <cc:Work
         rdf:about="">
        <dc:title></dc:title>
      </cc:Work>
    </rdf:RDF>
  </metadata>
</svg>
